<svg xmlns="http://www.w3.org/2000/svg" xml:space="preserve">
    <path d="M0 0h54.48v37.44H0z"/>
    <path fill="#FFF" d="M1.92 1.92h50.64v33.6H1.92z"/>
    <path d="M42.24 23.28c-.068.925.307 3.25-3.84 3.36-4.815-.11-4.478-3.373-4.56-4.56.008-1.137.008-3.575 0-6.48.158-2.87.307-4.97 4.8-5.04 4.657.07 4.245 3.37 4.32 4.32.187.288.337.625 1.2.72h2.64c.622-.095.885-.545.96-.96V10.8c-.075-.545-.375-1.145-1.2-1.44-1.5-.305-4.65-.492-7.44-.48-6.435.063-7.71.85-8.64 1.68-1.02.82-2.52 1.12-2.4 7.68-.12 6.64.18 7.24 1.2 8.4 1.23 1.24 6.03 1.84 8.64 1.68 1.959.085 5.452-.102 9.12-1.2.27-.177.57-.44.48-.96v-2.88c.09-1.699.99-2.712 2.16-2.64.517-.072.817-.373.72-.72v-.48c.097-.316-.053-.71-.48-.72H39.84c-.592.01-.742.404-.72.72v.48c-.022.347.277.648.72.72 1.658-.035 2.37.941 2.4 2.64zm-24.72 4.56c.296.115.503-.054.48-.24v-.72c.023-.388-.259-.519-.48-.48-3.172-.095-4.147-1.109-4.08-2.88v-2.88h6.24c2.43-.11 6.48-.26 6.48-6.24 0-4.482-2.7-5.082-6-5.04H4.8c-.296-.042-.652.239-.72.48v.72c.068.37.461.501.72.48 2.235.04 3.285 1.091 3.36 2.88v9.6c-.075 1.771-1.237 2.822-3.36 2.88-.371-.039-.652.092-.72.48v.72c.068.186.274.355.48.24h12.96z"/>
    <path fill="#FFF" d="M13.44 11.28h4.08c2.378-.012 2.753 1.675 2.64 3.36.113 1.765-.15 3.94-2.4 3.84h-4.32v-7.2z"/>
</svg>
