<svg xmlns="http://www.w3.org/2000/svg" version="1.0" baseProfile="basic" viewBox="0 0 84.188 21.365" overflow="visible" xml:space="preserve">
    <path d="M9.18 20.346c-.085.142-.227.226-.48.226H3.131c-.226 0-.509-.056-.368-.537l.17-.537c.112-.367.338-.396.537-.452.706-.14 1.44-.65 1.44-1.864V4.24c-.508-.594-1.61-1.413-2.6-1.837-.536-.198-.593-.452-.479-.734l.226-.65a.562.562 0 0 1 .48-.226h7.094c.707.056 1.075.565 1.582 1.158l8.619 11.417h.056V4.183c0-1.385-.423-1.582-1.809-1.921-.366-.057-.423-.34-.31-.594l.226-.65c.084-.142.226-.226.48-.226h5.567c.226 0 .508.056.367.537l-.17.537c-.112.367-.338.396-.536.452-.707.14-1.442.65-1.442 1.865V19.64c0 .565-.254.932-.763.932H18.22c-.14 0-.31-.198-1.186-1.271L7.342 6.218h-.056v10.964c0 1.385.423 1.582 1.809 1.921.367.057.423.34.31.594l-.226.65zm33.08-1.299c-.17.368-.283.707-.565.904-.678.537-2.459.96-4.946.96-7.008 0-11.416-4.238-11.416-10.399 0-5.538 4.633-10.06 11.19-10.06 2.938 0 5.737.933 6.668 1.611.113.085.141.199.141.396v2.119c0 .142-.113.339-.226.396l-1.129.678c-.423.283-2.006-3.136-5.51-3.136-3.448 0-4.973 3.165-4.973 7.771 0 5.652 2.316 8.083 6.16 8.083 1.158 0 3.448-.594 4.634-2.318.312-.452 1.103.113.99.34l-1.018 2.655zm1.722-7.156v-2.6h7.037v2.6h-7.037zm18.256 4.951c0 .849.424 1.3.707 1.527 1.045.763 3.476.339 3.052 1.074l-.424.735c-.226.452-.735.395-1.3.395h-9.862c-.763 0-1.583.113-1.328-.537l.311-.79c.198-.425 1.978-.312 2.458-.708.367-.254 1.018-.678 1.018-1.696V5.03c0-1.469-1.526-1.102-2.995-.621l-.622.226c-.198.056-.367 0-.452-.255l-.17-.904c-.083-.254-.083-.509.199-.622L62.238.453v16.39zM72.994 5.087c-1.893 0-2.261 2.317-2.77 1.922l-.395-.312a.679.679 0 0 1-.14-.395l-.029-4.889c0-.508.226-.621.791-.621h11.954v1.893c-1.442 3.193-6.811 14.13-8.506 17.888h-4.945c2.797-4.267 7.742-12.858 9.07-15.486h-5.03z"/>
</svg>
