<svg xmlns="http://www.w3.org/2000/svg" viewBox="0 0 92.604 82.491">
    <defs>
        <clipPath id="a">
            <path d="M42.52 273.902h62.843v55.985H42.52zm0 0"/>
        </clipPath>
    </defs>
    <g clip-path="url(#a)" style="opacity:1;stop-opacity:1" transform="translate(-62.655 -403.612) scale(1.47356)">
        <path style="fill:#000;fill-opacity:1;fill-rule:nonzero;stroke:none" d="M103.715 326.453a4.85 4.85 0 0 1-4.246 2.45H48.414a4.85 4.85 0 0 1-4.246-2.45 4.85 4.85 0 0 1 0-4.902l25.527-44.219a4.85 4.85 0 0 1 4.246-2.45 4.85 4.85 0 0 1 4.246 2.45l25.528 44.219a4.85 4.85 0 0 1 0 4.902m.851-5.394-25.53-44.215a5.814 5.814 0 0 0-5.095-2.942 5.823 5.823 0 0 0-5.093 2.938l-25.532 44.219a5.827 5.827 0 0 0 0 5.882 5.825 5.825 0 0 0 5.098 2.942H99.47a5.825 5.825 0 0 0 5.097-2.942 5.827 5.827 0 0 0 0-5.882"/>
    </g>
    <path style="opacity:1;fill:#fff;fill-opacity:1;fill-rule:nonzero;stroke:none;stop-opacity:1" d="M99.469 326.445H48.414c-1.883 0-3.062-2.035-2.121-3.668l25.531-44.215a2.416 2.416 0 0 1 2.117-1.222c.825 0 1.649.406 2.118 1.223l25.527 44.214c.945 1.633-.234 3.668-2.117 3.668m4.246-4.894-25.528-44.219a4.85 4.85 0 0 0-4.246-2.45 4.85 4.85 0 0 0-4.246 2.45l-25.527 44.219a4.85 4.85 0 0 0 0 4.902 4.85 4.85 0 0 0 4.246 2.45H99.47a4.85 4.85 0 0 0 4.246-2.45 4.85 4.85 0 0 0 0-4.902" transform="translate(-62.655 -403.612) scale(1.47356)"/>
    <path style="opacity:1;fill:#2ea635;fill-opacity:1;fill-rule:nonzero;stroke:none;stop-opacity:1" d="M76.059 278.563a2.416 2.416 0 0 0-2.118-1.223c-.824 0-1.648.406-2.117 1.223l-25.531 44.214c-.941 1.633.238 3.668 2.121 3.668H99.47c1.883 0 3.062-2.035 2.117-3.668zm0 0" transform="translate(-62.655 -403.612) scale(1.47356)"/>
    <path style="opacity:1;fill:#fff;fill-opacity:1;fill-rule:nonzero;stroke:none;stop-opacity:1" d="M81.828 300.875v12.332c-.027 2.219-.027 4.05-2.11 5.824-1.991 1.746-4.57 1.91-5.902 1.91-1.191 0-2.355-.136-3.464-.527-2.329-.8-3.579-2.492-4.02-3.96-.25-.86-.25-1.47-.277-3.911v-11.668h3.66v12.027c0 .832-.027 1.637.25 2.387.746 1.883 2.8 2.106 3.96 2.106.587 0 2.055-.028 3.134-.97 1.082-.972 1.082-2.081 1.082-3.714v-11.836zm0 0" transform="translate(-62.655 -403.612) scale(1.47356)"/>
</svg>
